<svg width="442" height="369" viewBox="0 0 442 369" fill="none" xmlns="http://www.w3.org/2000/svg">
<g clip-path="url(#clip0_78_130)">
<path d="M43.009 304.425H438.692" stroke="black"/>
<path d="M75.9824 315.495V304.425" stroke="black"/>
<path d="M73.1266 329.928V338.656H72.0698V331.036H72.0186L69.888 332.451V331.377L72.0698 329.928H73.1266ZM75.6365 338.656V337.889L78.5172 334.735C78.8553 334.366 79.1337 334.045 79.3524 333.772C79.5712 333.497 79.7331 333.238 79.8382 332.997C79.9462 332.752 80.0002 332.497 80.0002 332.23C80.0002 331.923 79.9263 331.657 79.7786 331.433C79.6337 331.208 79.4348 331.035 79.182 330.913C78.9291 330.791 78.6451 330.73 78.3297 330.73C77.9945 330.73 77.7019 330.799 77.4519 330.938C77.2047 331.075 77.013 331.267 76.8766 331.514C76.7431 331.761 76.6763 332.051 76.6763 332.383H75.6706C75.6706 331.872 75.7885 331.423 76.0243 331.036C76.2601 330.65 76.5811 330.349 76.9874 330.133C77.3965 329.917 77.8553 329.809 78.3638 329.809C78.8752 329.809 79.3283 329.917 79.7232 330.133C80.1181 330.349 80.4277 330.64 80.6522 331.007C80.8766 331.373 80.9888 331.781 80.9888 332.23C80.9888 332.551 80.9306 332.865 80.8141 333.171C80.7005 333.475 80.5016 333.815 80.2175 334.19C79.9362 334.562 79.5456 335.017 79.0456 335.553L77.0854 337.65V337.718H81.1422V338.656H75.6365Z" fill="black"/>
<path d="M141.93 315.495V304.425" stroke="black"/>
<path d="M143.112 334.487V343.214H142.055V335.595H142.004L139.874 337.01V335.936L142.055 334.487H143.112Z" fill="black"/>
<path d="M207.877 315.495V304.425" stroke="black"/>
<path d="M205.147 343.214V342.447L208.028 339.294C208.366 338.925 208.644 338.604 208.863 338.331C209.082 338.055 209.244 337.797 209.349 337.555C209.457 337.311 209.511 337.055 209.511 336.788C209.511 336.481 209.437 336.216 209.289 335.991C209.144 335.767 208.946 335.594 208.693 335.471C208.44 335.349 208.156 335.288 207.84 335.288C207.505 335.288 207.213 335.358 206.963 335.497C206.715 335.633 206.524 335.825 206.387 336.072C206.254 336.319 206.187 336.609 206.187 336.942H205.181C205.181 336.43 205.299 335.981 205.535 335.595C205.771 335.209 206.092 334.908 206.498 334.692C206.907 334.476 207.366 334.368 207.875 334.368C208.386 334.368 208.839 334.476 209.234 334.692C209.629 334.908 209.938 335.199 210.163 335.565C210.387 335.932 210.5 336.339 210.5 336.788C210.5 337.109 210.441 337.423 210.325 337.73C210.211 338.034 210.012 338.373 209.728 338.748C209.447 339.121 209.056 339.575 208.556 340.112L206.596 342.209V342.277H210.653V343.214H205.147Z" fill="black"/>
<path d="M273.824 315.495V304.425" stroke="black"/>
<path d="M273.856 343.334C273.293 343.334 272.792 343.237 272.351 343.044C271.914 342.851 271.566 342.582 271.307 342.239C271.052 341.892 270.912 341.49 270.89 341.033H271.964C271.986 341.314 272.083 341.557 272.253 341.761C272.424 341.963 272.647 342.119 272.922 342.23C273.198 342.341 273.503 342.396 273.839 342.396C274.214 342.396 274.546 342.331 274.836 342.2C275.126 342.069 275.353 341.888 275.518 341.655C275.682 341.422 275.765 341.152 275.765 340.845C275.765 340.524 275.685 340.241 275.526 339.997C275.367 339.75 275.134 339.557 274.827 339.417C274.52 339.278 274.145 339.209 273.702 339.209H273.003V338.271H273.702C274.049 338.271 274.353 338.209 274.614 338.084C274.878 337.959 275.084 337.783 275.232 337.555C275.383 337.328 275.458 337.061 275.458 336.754C275.458 336.459 275.393 336.202 275.262 335.983C275.131 335.764 274.947 335.594 274.708 335.471C274.472 335.349 274.194 335.288 273.873 335.288C273.572 335.288 273.287 335.344 273.02 335.454C272.756 335.562 272.54 335.72 272.373 335.927C272.205 336.132 272.114 336.379 272.1 336.669H271.077C271.094 336.212 271.232 335.811 271.491 335.467C271.749 335.121 272.087 334.851 272.505 334.658C272.925 334.464 273.387 334.368 273.89 334.368C274.43 334.368 274.893 334.477 275.279 334.696C275.665 334.912 275.962 335.197 276.17 335.552C276.377 335.908 276.481 336.291 276.481 336.703C276.481 337.194 276.351 337.614 276.093 337.96C275.837 338.307 275.489 338.547 275.049 338.68V338.748C275.6 338.839 276.03 339.074 276.34 339.452C276.65 339.827 276.805 340.291 276.805 340.845C276.805 341.319 276.675 341.746 276.417 342.123C276.161 342.498 275.812 342.794 275.368 343.01C274.925 343.226 274.421 343.334 273.856 343.334Z" fill="black"/>
<path d="M339.771 315.495V304.425" stroke="black"/>
<path d="M336.62 341.425V340.555L340.455 334.487H341.086V335.834H340.66L337.762 340.419V340.487H342.927V341.425H336.62ZM340.728 343.214V341.16V340.756V334.487H341.734V343.214H340.728Z" fill="black"/>
<path d="M405.718 315.495V304.425" stroke="black"/>
<path d="M405.698 343.334C405.198 343.334 404.748 343.234 404.347 343.035C403.947 342.837 403.626 342.564 403.384 342.217C403.143 341.871 403.011 341.476 402.988 341.033H404.011C404.051 341.427 404.23 341.754 404.548 342.013C404.869 342.268 405.252 342.396 405.698 342.396C406.056 342.396 406.374 342.312 406.653 342.145C406.934 341.977 407.154 341.747 407.313 341.454C407.475 341.159 407.556 340.825 407.556 340.453C407.556 340.072 407.472 339.733 407.305 339.435C407.14 339.133 406.913 338.896 406.623 338.723C406.333 338.55 406.002 338.462 405.63 338.459C405.363 338.456 405.089 338.497 404.808 338.582C404.526 338.665 404.295 338.771 404.113 338.902L403.124 338.783L403.653 334.487H408.187V335.425H404.539L404.232 337.998H404.284C404.462 337.856 404.687 337.739 404.957 337.645C405.227 337.551 405.508 337.504 405.801 337.504C406.335 337.504 406.811 337.632 407.228 337.888C407.649 338.14 407.978 338.487 408.217 338.927C408.458 339.368 408.579 339.871 408.579 340.436C408.579 340.993 408.454 341.49 408.204 341.927C407.957 342.362 407.616 342.706 407.181 342.959C406.747 343.209 406.252 343.334 405.698 343.334Z" fill="black"/>
<path d="M43.009 9.2251V304.425" stroke="black"/>
<path d="M39.0391 304.425H43.0091" stroke="black"/>
<path d="M31.9807 302.264C31.3386 302.264 30.7917 302.089 30.34 301.74C29.8883 301.388 29.5432 300.878 29.3045 300.21C29.0659 299.54 28.9466 298.73 28.9466 297.781C28.9466 296.838 29.0659 296.033 29.3045 295.365C29.546 294.694 29.8926 294.183 30.3443 293.831C30.7989 293.476 31.3443 293.298 31.9807 293.298C32.617 293.298 33.1611 293.476 33.6128 293.831C34.0673 294.183 34.4139 294.694 34.6525 295.365C34.894 296.033 35.0148 296.838 35.0148 297.781C35.0148 298.73 34.8954 299.54 34.6568 300.21C34.4182 300.878 34.073 301.388 33.6213 301.74C33.1696 302.089 32.6227 302.264 31.9807 302.264ZM31.9807 301.327C32.617 301.327 33.1114 301.02 33.4636 300.406C33.8159 299.793 33.992 298.918 33.992 297.781C33.992 297.025 33.9111 296.382 33.7491 295.851C33.59 295.319 33.3599 294.915 33.0588 294.636C32.7605 294.358 32.4011 294.219 31.9807 294.219C31.35 294.219 30.8571 294.53 30.502 295.152C30.1469 295.771 29.9693 296.648 29.9693 297.781C29.9693 298.537 30.0489 299.179 30.2079 299.707C30.367 300.236 30.5957 300.638 30.894 300.913C31.1952 301.189 31.5574 301.327 31.9807 301.327Z" fill="black"/>
<path d="M39.0391 230.625H43.0091" stroke="black"/>
<path d="M29.3684 228.345V227.578L32.249 224.424C32.5871 224.055 32.8655 223.734 33.0843 223.461C33.303 223.186 33.4649 222.927 33.5701 222.686C33.678 222.441 33.732 222.186 33.732 221.919C33.732 221.612 33.6581 221.346 33.5104 221.122C33.3655 220.897 33.1666 220.724 32.9138 220.602C32.661 220.48 32.3769 220.419 32.0615 220.419C31.7263 220.419 31.4337 220.488 31.1837 220.627C30.9365 220.764 30.7448 220.956 30.6084 221.203C30.4749 221.45 30.4081 221.74 30.4081 222.072H29.4024C29.4024 221.561 29.5203 221.112 29.7561 220.725C29.9919 220.339 30.313 220.038 30.7192 219.822C31.1283 219.606 31.5871 219.498 32.0956 219.498C32.607 219.498 33.0601 219.606 33.455 219.822C33.8499 220.038 34.1595 220.329 34.384 220.696C34.6084 221.062 34.7206 221.47 34.7206 221.919C34.7206 222.24 34.6624 222.554 34.5459 222.86C34.4323 223.164 34.2334 223.504 33.9493 223.879C33.6681 224.251 33.2774 224.706 32.7774 225.242L30.8172 227.339V227.407H34.874V228.345H29.3684ZM32.0605 243.464C31.5605 243.464 31.1102 243.365 30.7096 243.166C30.3091 242.967 29.988 242.694 29.7465 242.348C29.5051 242.001 29.373 241.606 29.3502 241.163H30.373C30.4127 241.558 30.5917 241.884 30.9099 242.143C31.2309 242.399 31.6144 242.527 32.0605 242.527C32.4184 242.527 32.7366 242.443 33.015 242.275C33.2963 242.108 33.5164 241.877 33.6755 241.585C33.8375 241.289 33.9184 240.956 33.9184 240.583C33.9184 240.203 33.8346 239.863 33.667 239.565C33.5022 239.264 33.275 239.027 32.9852 238.853C32.6954 238.68 32.3644 238.592 31.9923 238.589C31.7252 238.586 31.4511 238.627 31.1698 238.713C30.8886 238.795 30.6571 238.902 30.4752 239.032L29.4866 238.913L30.015 234.617H34.5491V235.555H30.9014L30.5946 238.129H30.6457C30.8247 237.987 31.0491 237.869 31.319 237.775C31.5889 237.681 31.8701 237.634 32.1627 237.634C32.6968 237.634 33.1727 237.762 33.5903 238.018C34.0108 238.271 34.3403 238.617 34.5789 239.058C34.8204 239.498 34.9412 240.001 34.9412 240.566C34.9412 241.123 34.8162 241.62 34.5662 242.058C34.319 242.492 33.9781 242.836 33.5434 243.089C33.1088 243.339 32.6144 243.464 32.0605 243.464Z" fill="black"/>
<path d="M39.0391 156.825H43.0091" stroke="black"/>
<path d="M32.0605 154.664C31.5605 154.664 31.1102 154.565 30.7096 154.366C30.3091 154.167 29.988 153.894 29.7465 153.548C29.5051 153.201 29.373 152.806 29.3502 152.363H30.373C30.4127 152.758 30.5917 153.084 30.9099 153.343C31.2309 153.599 31.6144 153.726 32.0605 153.726C32.4184 153.726 32.7366 153.643 33.015 153.475C33.2963 153.307 33.5164 153.077 33.6755 152.785C33.8375 152.489 33.9184 152.155 33.9184 151.783C33.9184 151.403 33.8346 151.063 33.667 150.765C33.5022 150.464 33.275 150.226 32.9852 150.053C32.6954 149.88 32.3644 149.792 31.9923 149.789C31.7252 149.786 31.4511 149.827 31.1698 149.913C30.8886 149.995 30.6571 150.101 30.4752 150.232L29.4866 150.113L30.015 145.817H34.5491V146.755H30.9014L30.5946 149.329H30.6457C30.8247 149.187 31.0491 149.069 31.319 148.975C31.5889 148.881 31.8701 148.834 32.1627 148.834C32.6968 148.834 33.1727 148.962 33.5903 149.218C34.0108 149.471 34.3403 149.817 34.5789 150.258C34.8204 150.698 34.9412 151.201 34.9412 151.766C34.9412 152.323 34.8162 152.82 34.5662 153.258C34.319 153.692 33.9781 154.036 33.5434 154.289C33.1088 154.539 32.6144 154.664 32.0605 154.664ZM31.9806 169.664C31.3385 169.664 30.7916 169.489 30.3399 169.14C29.8882 168.788 29.5431 168.278 29.3044 167.61C29.0658 166.94 28.9465 166.13 28.9465 165.181C28.9465 164.238 29.0658 163.432 29.3044 162.765C29.5459 162.094 29.8925 161.583 30.3442 161.231C30.7988 160.876 31.3442 160.698 31.9806 160.698C32.6169 160.698 33.161 160.876 33.6127 161.231C34.0672 161.583 34.4138 162.094 34.6524 162.765C34.8939 163.432 35.0147 164.238 35.0147 165.181C35.0147 166.13 34.8953 166.94 34.6567 167.61C34.4181 168.278 34.0729 168.788 33.6212 169.14C33.1695 169.489 32.6226 169.664 31.9806 169.664ZM31.9806 168.726C32.6169 168.726 33.1113 168.42 33.4635 167.806C33.8158 167.192 33.9919 166.317 33.9919 165.181C33.9919 164.425 33.911 163.782 33.749 163.251C33.5899 162.719 33.3598 162.315 33.0587 162.036C32.7604 161.758 32.401 161.619 31.9806 161.619C31.3499 161.619 30.857 161.93 30.5019 162.552C30.1468 163.171 29.9692 164.048 29.9692 165.181C29.9692 165.937 30.0488 166.579 30.2078 167.107C30.3669 167.636 30.5956 168.038 30.8939 168.313C31.1951 168.589 31.5573 168.726 31.9806 168.726Z" fill="black"/>
<path d="M39.0391 83.0249H43.0091" stroke="black"/>
<path d="M30.1684 80.7446L34.0718 73.023V72.9549H29.5718V72.0174H35.1627V73.006L31.2764 80.7446H30.1684ZM32.0605 95.8639C31.5605 95.8639 31.1102 95.7645 30.7096 95.5657C30.3091 95.3668 29.988 95.0941 29.7465 94.7475C29.5051 94.4009 29.373 94.006 29.3502 93.5628H30.373C30.4127 93.9577 30.5917 94.2844 30.9099 94.5429C31.2309 94.7986 31.6144 94.9264 32.0605 94.9264C32.4184 94.9264 32.7366 94.8426 33.015 94.675C33.2963 94.5074 33.5164 94.2773 33.6755 93.9847C33.8375 93.6892 33.9184 93.3554 33.9184 92.9833C33.9184 92.6026 33.8346 92.2631 33.667 91.9648C33.5022 91.6637 33.275 91.4264 32.9852 91.2532C32.6954 91.0799 32.3644 90.9918 31.9923 90.9889C31.7252 90.9861 31.4511 91.0273 31.1698 91.1125C30.8886 91.1949 30.6571 91.3014 30.4752 91.4321L29.4866 91.3128L30.015 87.0174H34.5491V87.9549H30.9014L30.5946 90.5287H30.6457C30.8247 90.3867 31.0491 90.2688 31.319 90.175C31.5889 90.0813 31.8701 90.0344 32.1627 90.0344C32.6968 90.0344 33.1727 90.1622 33.5903 90.4179C34.0108 90.6708 34.3403 91.0174 34.5789 91.4577C34.8204 91.898 34.9412 92.4009 34.9412 92.9662C34.9412 93.523 34.8162 94.0202 34.5662 94.4577C34.319 94.8924 33.9781 95.2361 33.5434 95.4889C33.1088 95.7389 32.6144 95.8639 32.0605 95.8639Z" fill="black"/>
<path d="M39.0391 9.2251H43.0091" stroke="black"/>
<path d="M26.6241 5.95779V14.6851H25.5673V7.06574H25.5162L23.3855 8.48051V7.40665L25.5673 5.95779H26.6241ZM31.9807 14.8044C31.3386 14.8044 30.7917 14.6297 30.34 14.2802C29.8883 13.928 29.5432 13.418 29.3045 12.7504C29.0659 12.0799 28.9466 11.2703 28.9466 10.3214C28.9466 9.37824 29.0659 8.57284 29.3045 7.90523C29.546 7.23477 29.8926 6.72341 30.3443 6.37114C30.7988 6.01602 31.3443 5.83847 31.9807 5.83847C32.617 5.83847 33.1611 6.01602 33.6128 6.37114C34.0673 6.72341 34.4139 7.23477 34.6525 7.90523C34.894 8.57284 35.0148 9.37824 35.0148 10.3214C35.0148 11.2703 34.8954 12.0799 34.6568 12.7504C34.4182 13.418 34.073 13.928 33.6213 14.2802C33.1696 14.6297 32.6227 14.8044 31.9807 14.8044ZM31.9807 13.8669C32.617 13.8669 33.1113 13.5601 33.4636 12.9464C33.8159 12.3328 33.992 11.4578 33.992 10.3214C33.992 9.56574 33.9111 8.92227 33.7491 8.39102C33.59 7.85977 33.3599 7.45494 33.0588 7.17654C32.7605 6.89813 32.4011 6.75892 31.9807 6.75892C31.35 6.75892 30.8571 7.07 30.502 7.69216C30.1469 8.31148 29.9693 9.1879 29.9693 10.3214C29.9693 11.0771 30.0488 11.7191 30.2079 12.2476C30.367 12.776 30.5957 13.178 30.894 13.4535C31.1951 13.7291 31.5574 13.8669 31.9807 13.8669ZM31.9807 29.8044C31.3386 29.8044 30.7917 29.6297 30.34 29.2802C29.8883 28.928 29.5432 28.418 29.3045 27.7504C29.0659 27.0799 28.9466 26.2703 28.9466 25.3214C28.9466 24.3782 29.0659 23.5728 29.3045 22.9052C29.546 22.2348 29.8926 21.7234 30.3443 21.3711C30.7988 21.016 31.3443 20.8385 31.9807 20.8385C32.617 20.8385 33.1611 21.016 33.6128 21.3711C34.0673 21.7234 34.4139 22.2348 34.6525 22.9052C34.894 23.5728 35.0148 24.3782 35.0148 25.3214C35.0148 26.2703 34.8954 27.0799 34.6568 27.7504C34.4182 28.418 34.073 28.928 33.6213 29.2802C33.1696 29.6297 32.6227 29.8044 31.9807 29.8044ZM31.9807 28.8669C32.617 28.8669 33.1113 28.5601 33.4636 27.9464C33.8159 27.3328 33.992 26.4578 33.992 25.3214C33.992 24.5657 33.9111 23.9223 33.7491 23.391C33.59 22.8598 33.3599 22.4549 33.0588 22.1765C32.7605 21.8981 32.4011 21.7589 31.9807 21.7589C31.35 21.7589 30.8571 22.07 30.502 22.6922C30.1469 23.3115 29.9693 24.1879 29.9693 25.3214C29.9693 26.0771 30.0488 26.7191 30.2079 27.2476C30.367 27.776 30.5957 28.178 30.894 28.4535C31.1951 28.7291 31.5574 28.8669 31.9807 28.8669Z" fill="black"/>
<path d="M43.009 304.425H438.692" stroke="#CCCCCC"/>
<path d="M43.009 230.625H438.692" stroke="#CCCCCC"/>
<path d="M43.009 156.825H438.692" stroke="#CCCCCC"/>
<path d="M43.009 83.0251H438.692" stroke="#CCCCCC"/>
<path d="M43.009 9.2251H438.692" stroke="#CCCCCC"/>
<path d="M75.9827 9.2251V304.425" stroke="#CCCCCC"/>
<path d="M141.93 9.2251V304.425" stroke="#CCCCCC"/>
<path d="M207.877 9.2251V304.425" stroke="#CCCCCC"/>
<path d="M273.824 9.2251V304.425" stroke="#CCCCCC"/>
<path d="M339.771 9.2251V304.425" stroke="#CCCCCC"/>
<path d="M405.718 9.2251V304.425" stroke="#CCCCCC"/>
<path d="M43.009 9.2251V304.425" stroke="#CCCCCC"/>
<path d="M438.692 9.2251V304.425" stroke="#CCCCCC"/>
<path d="M396.869 43.8564H418.36V303.971H396.869V43.8564Z" fill="#6CDDA0"/>
<path d="M328.814 68.0532H350.305V306.058H328.814V68.0532Z" fill="#6CDDA0"/>
<path d="M264.34 55.9548H283.682V303.971H264.34V55.9548Z" fill="#6CDDA0"/>
<path d="M197.718 157.279H217.776V305.484H197.718V157.279Z" fill="#6CDDA0"/>
<path d="M65.906 207.184H85.9644V303.971H65.906V207.184Z" fill="#6CDDA0"/>
<path d="M132.335 191.88H152.186V304.056H132.335V191.88Z" fill="#6CDDA0"/>
</g>
<defs>
<clipPath id="clip0_78_130">
<rect width="442" height="369" fill="white"/>
</clipPath>
</defs>
</svg>
