<svg width="288" height="268" viewBox="0 0 288 268" fill="none" xmlns="http://www.w3.org/2000/svg">
<mask id="path-1-inside-1_19_494" fill="white">
<path d="M144 0C162.91 2.09844e-07 181.636 3.46601 199.106 10.2001C216.577 16.9343 232.452 26.8046 245.823 39.2477C259.195 51.6908 269.802 66.4628 277.039 82.7204C284.275 98.9781 288 116.403 288 134L273.302 134C273.302 118.199 269.958 102.553 263.46 87.9545C256.962 73.3562 247.437 60.0919 235.43 48.9189C223.424 37.7459 209.169 28.883 193.482 22.8362C177.794 16.7894 160.98 13.6772 144 13.6772V0Z"/>
</mask>
<path d="M144 0C162.91 2.09844e-07 181.636 3.46601 199.106 10.2001C216.577 16.9343 232.452 26.8046 245.823 39.2477C259.195 51.6908 269.802 66.4628 277.039 82.7204C284.275 98.9781 288 116.403 288 134L273.302 134C273.302 118.199 269.958 102.553 263.46 87.9545C256.962 73.3562 247.437 60.0919 235.43 48.9189C223.424 37.7459 209.169 28.883 193.482 22.8362C177.794 16.7894 160.98 13.6772 144 13.6772V0Z" stroke="#FFB545" stroke-width="16" stroke-linecap="round" stroke-linejoin="round" mask="url(#path-1-inside-1_19_494)"/>
</svg>
