<svg xmlns="http://www.w3.org/2000/svg" width="240" height="240" viewBox="0 0 240 240" fill="none">
  <path d="M235 120C235 135.102 232.025 150.056 226.246 164.009C220.467 177.961 211.996 190.639 201.317 201.317C190.639 211.996 177.961 220.467 164.009 226.246C150.056 232.025 135.102 235 120 235C104.898 235 89.9438 232.025 75.9914 226.246C62.039 220.467 49.3615 211.996 38.6827 201.317C28.004 190.639 19.5331 177.961 13.7539 164.009C7.97456 150.056 5 135.102 5 120C5 104.898 7.97457 89.9438 13.7539 75.9914C19.5332 62.039 28.004 49.3614 38.6827 38.6827C49.3615 28.004 62.039 19.5331 75.9914 13.7538C89.9439 7.97456 104.898 5 120 5C135.102 5 150.056 7.97457 164.009 13.7539C177.961 19.5332 190.639 28.004 201.317 38.6827C211.996 49.3615 220.467 62.039 226.246 75.9914C232.025 89.9439 235 104.898 235 120L235 120Z" stroke="url(#paint0_linear_34_166)" stroke-width="10" stroke-linecap="round" stroke-linejoin="round"/>
  <path d="M220 120C220 133.132 217.413 146.136 212.388 158.268C207.362 170.401 199.997 181.425 190.711 190.711C181.425 199.997 170.401 207.362 158.268 212.388C146.136 217.413 133.132 220 120 220C106.868 220 93.8642 217.413 81.7317 212.388C69.5991 207.362 58.5752 199.997 49.2893 190.711C40.0035 181.425 32.6375 170.401 27.612 158.268C22.5866 146.136 20 133.132 20 120C20 106.868 22.5866 93.8642 27.6121 81.7316C32.6375 69.5991 40.0035 58.5752 49.2893 49.2893C58.5752 40.0035 69.5991 32.6375 81.7317 27.612C93.8642 22.5866 106.868 20 120 20C133.132 20 146.136 22.5866 158.268 27.6121C170.401 32.6375 181.425 40.0035 190.711 49.2893C199.997 58.5752 207.362 69.5991 212.388 81.7317C217.413 93.8642 220 106.868 220 120L220 120Z" stroke="url(#paint1_linear_34_166)" stroke-width="10" stroke-linecap="round" stroke-linejoin="round"/>
  <path d="M205 120C205 131.162 202.801 142.215 198.53 152.528C194.258 162.841 187.997 172.211 180.104 180.104C172.211 187.997 162.841 194.258 152.528 198.53C142.215 202.801 131.162 205 120 205C108.838 205 97.7846 202.801 87.4719 198.53C77.1592 194.258 67.7889 187.997 59.8959 180.104C52.0029 172.211 45.7419 162.841 41.4702 152.528C37.1986 142.215 35 131.162 35 120C35 108.838 37.1986 97.7846 41.4702 87.4719C45.7419 77.1592 52.0029 67.7889 59.8959 59.8959C67.7889 52.0029 77.1592 45.7419 87.4719 41.4702C97.7846 37.1986 108.838 35 120 35C131.162 35 142.215 37.1986 152.528 41.4702C162.841 45.7419 172.211 52.003 180.104 59.8959C187.997 67.7889 194.258 77.1592 198.53 87.4719C202.801 97.7846 205 108.838 205 120L205 120Z" stroke="url(#paint2_linear_34_166)" stroke-width="10" stroke-linecap="round" stroke-linejoin="round"/>
  <defs>
    <linearGradient id="paint0_linear_34_166" x1="50" y1="17.5" x2="190" y2="223.75" gradientUnits="userSpaceOnUse">
      <stop stop-color="#A07AF0"/>
      <stop offset="1" stop-color="#8653F2"/>
    </linearGradient>
    <linearGradient id="paint1_linear_34_166" x1="58.75" y1="30.3125" x2="181.25" y2="210.781" gradientUnits="userSpaceOnUse">
      <stop stop-color="#F28F7A"/>
      <stop offset="1" stop-color="#F27A88"/>
    </linearGradient>
    <linearGradient id="paint2_linear_34_166" x1="67.5" y1="43.125" x2="172.5" y2="197.812" gradientUnits="userSpaceOnUse">
      <stop stop-color="#B0F07A"/>
      <stop offset="1" stop-color="#7AF0A9"/>
    </linearGradient>
  </defs>
</svg>