<svg width="617" height="244" viewBox="0 0 617 244" fill="none" xmlns="http://www.w3.org/2000/svg">
<path d="M60.0376 201.3H612.382" stroke="black"/>
<path d="M106.066 208.62V201.3" stroke="black"/>
<path d="M103.05 219.273V228H101.993V220.381H101.942L99.8111 221.795V220.722L101.993 219.273H103.05ZM105.56 228V227.233L108.44 224.08C108.778 223.71 109.057 223.389 109.276 223.116C109.494 222.841 109.656 222.582 109.761 222.341C109.869 222.097 109.923 221.841 109.923 221.574C109.923 221.267 109.849 221.001 109.702 220.777C109.557 220.553 109.358 220.379 109.105 220.257C108.852 220.135 108.568 220.074 108.253 220.074C107.918 220.074 107.625 220.143 107.375 220.283C107.128 220.419 106.936 220.611 106.8 220.858C106.666 221.105 106.599 221.395 106.599 221.727H105.594C105.594 221.216 105.712 220.767 105.947 220.381C106.183 219.994 106.504 219.693 106.911 219.477C107.32 219.261 107.778 219.153 108.287 219.153C108.798 219.153 109.251 219.261 109.646 219.477C110.041 219.693 110.351 219.984 110.575 220.351C110.8 220.717 110.912 221.125 110.912 221.574C110.912 221.895 110.854 222.209 110.737 222.516C110.624 222.82 110.425 223.159 110.141 223.534C109.859 223.906 109.469 224.361 108.969 224.898L107.009 226.994V227.062H111.065V228H105.56Z" fill="black"/>
<path d="M198.124 208.62V201.3" stroke="black"/>
<path d="M199.306 222.287V231.014H198.249V223.395H198.198L196.067 224.81V223.736L198.249 222.287H199.306Z" fill="black"/>
<path d="M290.181 208.62V201.3" stroke="black"/>
<path d="M287.452 231.014V230.247L290.332 227.094C290.67 226.725 290.949 226.404 291.167 226.131C291.386 225.855 291.548 225.597 291.653 225.355C291.761 225.111 291.815 224.855 291.815 224.588C291.815 224.281 291.741 224.016 291.594 223.791C291.449 223.567 291.25 223.394 290.997 223.272C290.744 223.149 290.46 223.088 290.145 223.088C289.809 223.088 289.517 223.158 289.267 223.297C289.02 223.433 288.828 223.625 288.692 223.872C288.558 224.12 288.491 224.409 288.491 224.742H287.486C287.486 224.23 287.604 223.781 287.839 223.395C288.075 223.009 288.396 222.708 288.802 222.492C289.211 222.276 289.67 222.168 290.179 222.168C290.69 222.168 291.143 222.276 291.538 222.492C291.933 222.708 292.243 222.999 292.467 223.365C292.692 223.732 292.804 224.139 292.804 224.588C292.804 224.909 292.746 225.223 292.629 225.53C292.515 225.834 292.317 226.173 292.033 226.548C291.751 226.921 291.361 227.375 290.861 227.912L288.9 230.009V230.077H292.957V231.014H287.452Z" fill="black"/>
<path d="M382.239 208.62V201.3" stroke="black"/>
<path d="M382.271 231.134C381.708 231.134 381.207 231.037 380.766 230.844C380.329 230.651 379.981 230.382 379.722 230.039C379.467 229.692 379.327 229.29 379.305 228.833H380.378C380.401 229.114 380.498 229.357 380.668 229.561C380.839 229.763 381.062 229.919 381.337 230.03C381.613 230.141 381.918 230.196 382.253 230.196C382.628 230.196 382.961 230.131 383.251 230C383.54 229.87 383.768 229.688 383.932 229.455C384.097 229.222 384.18 228.952 384.18 228.645C384.18 228.324 384.1 228.041 383.941 227.797C383.782 227.55 383.549 227.357 383.242 227.218C382.935 227.078 382.56 227.009 382.117 227.009H381.418V226.071H382.117C382.464 226.071 382.768 226.009 383.029 225.884C383.293 225.759 383.499 225.583 383.647 225.355C383.798 225.128 383.873 224.861 383.873 224.554C383.873 224.259 383.807 224.002 383.677 223.783C383.546 223.564 383.361 223.394 383.123 223.272C382.887 223.149 382.609 223.088 382.288 223.088C381.986 223.088 381.702 223.144 381.435 223.254C381.171 223.362 380.955 223.52 380.788 223.727C380.62 223.932 380.529 224.179 380.515 224.469H379.492C379.509 224.012 379.647 223.611 379.905 223.267C380.164 222.921 380.502 222.651 380.92 222.458C381.34 222.264 381.802 222.168 382.305 222.168C382.844 222.168 383.307 222.277 383.694 222.496C384.08 222.712 384.377 222.997 384.584 223.352C384.792 223.708 384.896 224.091 384.896 224.503C384.896 224.995 384.766 225.414 384.508 225.76C384.252 226.107 383.904 226.347 383.464 226.48V226.548C384.015 226.639 384.445 226.874 384.755 227.252C385.065 227.627 385.219 228.091 385.219 228.645C385.219 229.12 385.09 229.546 384.832 229.923C384.576 230.298 384.226 230.594 383.783 230.81C383.34 231.026 382.836 231.134 382.271 231.134Z" fill="black"/>
<path d="M474.296 208.62V201.3" stroke="black"/>
<path d="M471.145 229.225V228.355L474.98 222.287H475.611V223.634H475.185L472.287 228.219V228.287H477.452V229.225H471.145ZM475.253 231.014V228.96V228.556V222.287H476.259V231.014H475.253Z" fill="black"/>
<path d="M566.354 208.62V201.3" stroke="black"/>
<path d="M566.334 231.134C565.834 231.134 565.383 231.034 564.983 230.835C564.582 230.637 564.261 230.364 564.02 230.017C563.778 229.671 563.646 229.276 563.623 228.833H564.646C564.686 229.227 564.865 229.554 565.183 229.813C565.504 230.068 565.888 230.196 566.334 230.196C566.692 230.196 567.01 230.112 567.288 229.945C567.569 229.777 567.79 229.547 567.949 229.254C568.111 228.959 568.192 228.625 568.192 228.253C568.192 227.872 568.108 227.533 567.94 227.235C567.775 226.933 567.548 226.696 567.258 226.523C566.969 226.35 566.638 226.262 566.265 226.259C565.998 226.256 565.724 226.297 565.443 226.382C565.162 226.465 564.93 226.571 564.748 226.702L563.76 226.583L564.288 222.287H568.822V223.225H565.175L564.868 225.798H564.919C565.098 225.656 565.322 225.539 565.592 225.445C565.862 225.351 566.143 225.304 566.436 225.304C566.97 225.304 567.446 225.432 567.863 225.688C568.284 225.941 568.613 226.287 568.852 226.727C569.094 227.168 569.214 227.671 569.214 228.236C569.214 228.793 569.089 229.29 568.839 229.727C568.592 230.162 568.251 230.506 567.817 230.759C567.382 231.009 566.888 231.134 566.334 231.134Z" fill="black"/>
<path d="M60.0376 6.09985V201.3" stroke="black"/>
<path d="M54.4951 201.3H60.037" stroke="black"/>
<path d="M46.127 203.976C45.485 203.976 44.9381 203.802 44.4864 203.452C44.0347 203.1 43.6895 202.59 43.4509 201.923C43.2122 201.252 43.0929 200.442 43.0929 199.494C43.0929 198.55 43.2122 197.745 43.4509 197.077C43.6924 196.407 44.0389 195.896 44.4907 195.543C44.9452 195.188 45.4907 195.011 46.127 195.011C46.7634 195.011 47.3074 195.188 47.7591 195.543C48.2137 195.896 48.5603 196.407 48.7989 197.077C49.0404 197.745 49.1611 198.55 49.1611 199.494C49.1611 200.442 49.0418 201.252 48.8032 201.923C48.5645 202.59 48.2193 203.1 47.7676 203.452C47.3159 203.802 46.7691 203.976 46.127 203.976ZM46.127 203.039C46.7634 203.039 47.2577 202.732 47.61 202.119C47.9622 201.505 48.1384 200.63 48.1384 199.494C48.1384 198.738 48.0574 198.094 47.8955 197.563C47.7364 197.032 47.5063 196.627 47.2051 196.349C46.9068 196.07 46.5475 195.931 46.127 195.931C45.4963 195.931 45.0034 196.242 44.6483 196.864C44.2932 197.484 44.1157 198.36 44.1157 199.494C44.1157 200.249 44.1952 200.891 44.3543 201.42C44.5134 201.948 44.7421 202.35 45.0404 202.626C45.3415 202.901 45.7037 203.039 46.127 203.039Z" fill="black"/>
<path d="M54.4956 152.5H60.0375" stroke="black"/>
<path d="M43.515 155.057V154.29L46.3957 151.137C46.7338 150.767 47.0122 150.446 47.2309 150.174C47.4497 149.898 47.6116 149.64 47.7167 149.398C47.8247 149.154 47.8787 148.898 47.8787 148.631C47.8787 148.324 47.8048 148.059 47.6571 147.834C47.5122 147.61 47.3133 147.436 47.0605 147.314C46.8076 147.192 46.5236 147.131 46.2082 147.131C45.873 147.131 45.5804 147.201 45.3304 147.34C45.0832 147.476 44.8915 147.668 44.7551 147.915C44.6216 148.162 44.5548 148.452 44.5548 148.784H43.5491C43.5491 148.273 43.667 147.824 43.9028 147.438C44.1386 147.051 44.4596 146.75 44.8659 146.534C45.275 146.318 45.7338 146.211 46.2423 146.211C46.7537 146.211 47.2068 146.318 47.6017 146.534C47.9966 146.75 48.3062 147.042 48.5307 147.408C48.7551 147.774 48.8673 148.182 48.8673 148.631C48.8673 148.952 48.8091 149.266 48.6926 149.573C48.579 149.877 48.3801 150.216 48.096 150.591C47.8148 150.963 47.4241 151.418 46.9241 151.955L44.9639 154.051V154.12H49.0207V155.057H43.515ZM46.2072 170.176C45.7072 170.176 45.2569 170.077 44.8563 169.878C44.4557 169.679 44.1347 169.407 43.8932 169.06C43.6518 168.713 43.5197 168.318 43.4969 167.875H44.5197C44.5594 168.27 44.7384 168.597 45.0566 168.855C45.3776 169.111 45.7611 169.239 46.2072 169.239C46.5651 169.239 46.8833 169.155 47.1617 168.988C47.4429 168.82 47.6631 168.59 47.8222 168.297C47.9841 168.002 48.0651 167.668 48.0651 167.296C48.0651 166.915 47.9813 166.576 47.8137 166.277C47.6489 165.976 47.4216 165.739 47.1319 165.566C46.8421 165.392 46.5111 165.304 46.139 165.301C45.8719 165.299 45.5978 165.34 45.3165 165.425C45.0353 165.507 44.8037 165.614 44.6219 165.745L43.6333 165.625L44.1617 161.33H48.6958V162.267H45.0481L44.7412 164.841H44.7924C44.9714 164.699 45.1958 164.581 45.4657 164.488C45.7356 164.394 46.0168 164.347 46.3094 164.347C46.8435 164.347 47.3194 164.475 47.737 164.73C48.1574 164.983 48.487 165.33 48.7256 165.77C48.9671 166.211 49.0878 166.713 49.0878 167.279C49.0878 167.836 48.9628 168.333 48.7128 168.77C48.4657 169.205 48.1248 169.549 47.6901 169.801C47.2554 170.051 46.7611 170.176 46.2072 170.176Z" fill="black"/>
<path d="M54.4956 103.7H60.0375" stroke="black"/>
<path d="M46.2072 106.376C45.7072 106.376 45.2569 106.277 44.8563 106.078C44.4557 105.879 44.1347 105.607 43.8932 105.26C43.6518 104.913 43.5197 104.518 43.4969 104.075H44.5197C44.5594 104.47 44.7384 104.797 45.0566 105.055C45.3776 105.311 45.7611 105.439 46.2072 105.439C46.5651 105.439 46.8833 105.355 47.1617 105.187C47.4429 105.02 47.6631 104.79 47.8222 104.497C47.9841 104.202 48.0651 103.868 48.0651 103.496C48.0651 103.115 47.9813 102.776 47.8137 102.477C47.6489 102.176 47.4216 101.939 47.1319 101.766C46.8421 101.592 46.5111 101.504 46.139 101.501C45.8719 101.499 45.5978 101.54 45.3165 101.625C45.0353 101.707 44.8037 101.814 44.6219 101.945L43.6333 101.825L44.1617 97.5298H48.6958V98.4673H45.0481L44.7412 101.041H44.7924C44.9714 100.899 45.1958 100.781 45.4657 100.687C45.7356 100.594 46.0168 100.547 46.3094 100.547C46.8435 100.547 47.3194 100.675 47.737 100.93C48.1574 101.183 48.487 101.53 48.7256 101.97C48.9671 102.41 49.0878 102.913 49.0878 103.479C49.0878 104.035 48.9628 104.533 48.7128 104.97C48.4657 105.405 48.1248 105.749 47.6901 106.001C47.2554 106.251 46.7611 106.376 46.2072 106.376ZM46.1273 121.376C45.4852 121.376 44.9383 121.202 44.4866 120.852C44.0349 120.5 43.6898 119.99 43.4511 119.322C43.2125 118.652 43.0932 117.842 43.0932 116.893C43.0932 115.95 43.2125 115.145 43.4511 114.477C43.6926 113.807 44.0392 113.295 44.4909 112.943C44.9454 112.588 45.4909 112.41 46.1273 112.41C46.7636 112.41 47.3076 112.588 47.7594 112.943C48.2139 113.295 48.5605 113.807 48.7991 114.477C49.0406 115.145 49.1613 115.95 49.1613 116.893C49.1613 117.842 49.042 118.652 48.8034 119.322C48.5648 119.99 48.2196 120.5 47.7679 120.852C47.3162 121.202 46.7693 121.376 46.1273 121.376ZM46.1273 120.439C46.7636 120.439 47.2579 120.132 47.6102 119.518C47.9625 118.905 48.1386 118.03 48.1386 116.893C48.1386 116.138 48.0576 115.494 47.8957 114.963C47.7366 114.432 47.5065 114.027 47.2054 113.749C46.9071 113.47 46.5477 113.331 46.1273 113.331C45.4966 113.331 45.0037 113.642 44.6486 114.264C44.2934 114.884 44.1159 115.76 44.1159 116.893C44.1159 117.649 44.1954 118.291 44.3545 118.82C44.5136 119.348 44.7423 119.75 45.0406 120.026C45.3417 120.301 45.704 120.439 46.1273 120.439Z" fill="black"/>
<path d="M54.4956 54.8999H60.0375" stroke="black"/>
<path d="M44.3151 57.457L48.2185 49.7354V49.6673H43.7185V48.7298H49.3094V49.7184L45.4231 57.457H44.3151ZM46.2072 72.5763C45.7072 72.5763 45.2569 72.4769 44.8563 72.2781C44.4557 72.0792 44.1347 71.8065 43.8932 71.4599C43.6518 71.1133 43.5197 70.7184 43.4969 70.2752H44.5197C44.5594 70.6701 44.7384 70.9968 45.0566 71.2553C45.3776 71.511 45.7611 71.6388 46.2072 71.6388C46.5651 71.6388 46.8833 71.555 47.1617 71.3874C47.4429 71.2198 47.6631 70.9897 47.8222 70.6971C47.9841 70.4016 48.0651 70.0678 48.0651 69.6957C48.0651 69.315 47.9813 68.9755 47.8137 68.6772C47.6489 68.3761 47.4216 68.1388 47.1319 67.9656C46.8421 67.7923 46.5111 67.7042 46.139 67.7013C45.8719 67.6985 45.5978 67.7397 45.3165 67.8249C45.0353 67.9073 44.8037 68.0138 44.6219 68.1445L43.6333 68.0252L44.1617 63.7298H48.6958V64.6673H45.0481L44.7412 67.2411H44.7924C44.9714 67.0991 45.1958 66.9812 45.4657 66.8874C45.7356 66.7937 46.0168 66.7468 46.3094 66.7468C46.8435 66.7468 47.3194 66.8746 47.737 67.1303C48.1574 67.3832 48.487 67.7298 48.7256 68.1701C48.9671 68.6104 49.0878 69.1133 49.0878 69.6786C49.0878 70.2354 48.9628 70.7326 48.7128 71.1701C48.4657 71.6048 48.1248 71.9485 47.6901 72.2013C47.2554 72.4513 46.7611 72.5763 46.2072 72.5763Z" fill="black"/>
<path d="M54.4956 6.09985H60.0375" stroke="black"/>
<path d="M40.7706 5.04812V13.7754H39.7138V6.15607H39.6627L37.532 7.57084V6.49698L39.7138 5.04812H40.7706ZM46.1272 13.8947C45.4851 13.8947 44.9383 13.72 44.4866 13.3706C44.0348 13.0183 43.6897 12.5083 43.451 11.8407C43.2124 11.1703 43.0931 10.3606 43.0931 9.41175C43.0931 8.46857 43.2124 7.66317 43.451 6.99556C43.6925 6.32511 44.0391 5.81374 44.4908 5.46147C44.9454 5.10636 45.4908 4.9288 46.1272 4.9288C46.7635 4.9288 47.3076 5.10636 47.7593 5.46147C48.2138 5.81374 48.5604 6.32511 48.7991 6.99556C49.0405 7.66317 49.1613 8.46857 49.1613 9.41175C49.1613 10.3606 49.0419 11.1703 48.8033 11.8407C48.5647 12.5083 48.2195 13.0183 47.7678 13.3706C47.3161 13.72 46.7692 13.8947 46.1272 13.8947ZM46.1272 12.9572C46.7635 12.9572 47.2579 12.6504 47.6101 12.0368C47.9624 11.4231 48.1385 10.5481 48.1385 9.41175C48.1385 8.65607 48.0576 8.01261 47.8956 7.48136C47.7366 6.95011 47.5064 6.54528 47.2053 6.26687C46.907 5.98846 46.5476 5.84925 46.1272 5.84925C45.4965 5.84925 45.0036 6.16033 44.6485 6.78249C44.2934 7.40181 44.1158 8.27823 44.1158 9.41175C44.1158 10.1674 44.1954 10.8095 44.3544 11.3379C44.5135 11.8663 44.7422 12.2683 45.0405 12.5439C45.3417 12.8194 45.7039 12.9572 46.1272 12.9572ZM46.1272 28.8947C45.4851 28.8947 44.9383 28.72 44.4866 28.3706C44.0348 28.0183 43.6897 27.5083 43.451 26.8407C43.2124 26.1703 43.0931 25.3606 43.0931 24.4118C43.0931 23.4686 43.2124 22.6632 43.451 21.9956C43.6925 21.3251 44.0391 20.8137 44.4908 20.4615C44.9454 20.1064 45.4908 19.9288 46.1272 19.9288C46.7635 19.9288 47.3076 20.1064 47.7593 20.4615C48.2138 20.8137 48.5604 21.3251 48.7991 21.9956C49.0405 22.6632 49.1613 23.4686 49.1613 24.4118C49.1613 25.3606 49.0419 26.1703 48.8033 26.8407C48.5647 27.5083 48.2195 28.0183 47.7678 28.3706C47.3161 28.72 46.7692 28.8947 46.1272 28.8947ZM46.1272 27.9572C46.7635 27.9572 47.2579 27.6504 47.6101 27.0368C47.9624 26.4231 48.1385 25.5481 48.1385 24.4118C48.1385 23.6561 48.0576 23.0126 47.8956 22.4814C47.7366 21.9501 47.5064 21.5453 47.2053 21.2669C46.907 20.9885 46.5476 20.8493 46.1272 20.8493C45.4965 20.8493 45.0036 21.1603 44.6485 21.7825C44.2934 22.4018 44.1158 23.2782 44.1158 24.4118C44.1158 25.1674 44.1954 25.8095 44.3544 26.3379C44.5135 26.8663 44.7422 27.2683 45.0405 27.5439C45.3417 27.8194 45.7039 27.9572 46.1272 27.9572Z" fill="black"/>
<path d="M60.0376 201.3H612.382" stroke="#CCCCCC"/>
<path d="M60.0376 152.5H612.382" stroke="#CCCCCC"/>
<path d="M60.0376 103.7H612.382" stroke="#CCCCCC"/>
<path d="M60.0376 54.9001H612.382" stroke="#CCCCCC"/>
<path d="M60.0376 6.1001H612.382" stroke="#CCCCCC"/>
<path d="M106.066 6.1001V201.3" stroke="#CCCCCC"/>
<path d="M198.124 6.1001V201.3" stroke="#CCCCCC"/>
<path d="M290.181 6.1001V201.3" stroke="#CCCCCC"/>
<path d="M382.238 6.1001V201.3" stroke="#CCCCCC"/>
<path d="M474.296 6.1001V201.3" stroke="#CCCCCC"/>
<path d="M566.353 6.1001V201.3" stroke="#CCCCCC"/>
<path d="M60.0376 6.1001V201.3" stroke="#CCCCCC"/>
<path d="M612.382 6.1001V201.3" stroke="#CCCCCC"/>
<path d="M554 29H584V201H554V29Z" fill="#6CDDA0"/>
<path d="M459 45H489V202.38H459V45Z" fill="#6CDDA0"/>
<path d="M369 37H396V201H369V37Z" fill="#6CDDA0"/>
<path d="M276 104H304V202H276V104Z" fill="#6CDDA0"/>
<path d="M92 137H120V201H92V137Z" fill="#6CDDA0"/>
<path d="M184.73 126.88H212.44V201.056H184.73V126.88Z" fill="#6CDDA0"/>
</svg>
